<svg data-v-0dd9719b="" version="1.0" xmlns="http://www.w3.org/2000/svg" xmlns:xlink="http://www.w3.org/1999/xlink" width="100%" height="100%" viewBox="0 0 340.000000 250.000000" preserveAspectRatio="xMidYMid meet" color-interpolation-filters="sRGB" style="margin: auto;"> <rect data-v-0dd9719b="" x="0" y="0" width="100%" height="100%" fill="#fff" fill-opacity="1" class="background"></rect> <rect data-v-0dd9719b="" x="0" y="0" width="100%" height="100%" fill="url(#watermark)" fill-opacity="1" class="watermarklayer"></rect> <g data-v-0dd9719b="" fill="#0b56a6" class="icon-text-wrapper icon-svg-group iconsvg" transform="translate(55.91992950439453,98.21213340759277)"><g class="iconsvg-imagesvg" transform="translate(0,0)"><g><rect fill="#0b56a6" fill-opacity="0" stroke-width="2" x="0" y="0" width="60" height="53.57573376432035" class="image-rect"></rect> <svg x="0" y="0" width="60" height="53.57573376432035" filtersec="colorsb8583201548" class="image-svg-svg primary" style="overflow: visible;"><svg xmlns="http://www.w3.org/2000/svg" viewBox="0 -0.011434555053710938 424.6799621582031 379.20831298828125"><path d="M212.33 145.28a44.31 44.31 0 1 1-44.29 44.33 44.32 44.32 0 0 1 44.29-44.33z" fill="#da251d" fill-rule="evenodd"></path><path d="M307.2 25.47l-.05-.05c-14-8.06-37.41 1.17-64 22.66-29.28 23.64-60.88 61.71-87.94 108.54l-.07.14c-27 46.79-44.1 93.16-49.95 130.28-5.32 33.74-1.6 58.65 12.38 66.73 14 8.07 37.4-1.18 64-22.67 29.25-23.64 60.89-61.71 87.93-108.54 27-46.84 44.17-93.23 50-130.42 5.32-33.7 1.66-58.58-12.28-66.67zm-78.27 4.88c32.56-26.34 63.78-37 86.55-26.17h.27l2.72 1.56c23 13.28 30.27 46.66 23.47 89.87-6.14 39.06-23.69 87.23-51.25 135.57v.07l-1.57 2.72c-28.43 49.23-62 89.53-93.35 114.85-34 27.51-66.57 37.9-89.56 24.64-23-13.27-30.25-46.66-23.42-89.87 6.26-39.82 24.36-89 52.8-138.31v-.05c28.42-49.26 62-89.52 93.34-114.88z" fill="#0b56a6" fill-rule="evenodd"></path><path d="M401.86 189.61c0-16.17-19.69-31.82-51.49-44.08-35.08-13.48-83.86-21.85-138-21.85s-102.95 8.37-138 21.85c-31.88 12.26-51.58 27.91-51.58 44.08s19.68 31.81 51.5 44c35.07 13.5 83.85 21.85 138 21.85s103-8.35 138-21.85c31.8-12.23 51.49-27.89 51.49-44zm-43.39-65.28c40.91 15.76 66.21 38.72 66.21 65.28s-25.3 49.5-66.21 65.24c-37.65 14.49-89.34 23.45-146.14 23.45s-108.48-9-146.12-23.45C25.3 239.11 0 216.12 0 189.61s25.3-49.52 66.21-65.28c37.64-14.47 89.33-23.45 146.12-23.45s108.46 8.98 146.14 23.45z" fill="#0b56a6" fill-rule="evenodd"></path><path d="M307.1 353.77c14-8.08 17.7-33 12.38-66.73-5.84-37.12-23-83.49-49.93-130.28l-.09-.14c-27.05-46.83-58.66-84.87-87.91-108.54-26.57-21.47-50-30.72-64-22.66l-.82.49c-13.32 8.52-16.79 33.14-11.56 66.23 5.85 37.19 23 83.58 50 130.42 27 46.83 58.68 84.9 88 108.54 26.54 21.49 50 30.74 63.92 22.67zm34.84-70.18c6.8 43.21-.46 76.6-23.42 89.87s-55.58 2.89-89.61-24.64c-31.32-25.32-64.92-65.62-93.36-114.85l-1.57-2.72v-.07c-27.53-48.34-45.09-96.47-51.19-135.57-6.83-43.19.47-76.57 23.44-89.85.38-.22.77-.42 1.16-.63l1.59-.93h.24c22.78-10.8 54-.17 86.58 26.17 31.32 25.32 65 65.62 93.38 114.86v.05c28.39 49.29 46.5 98.49 52.76 138.31z" fill="#0b56a6" fill-rule="evenodd"></path></svg></svg> <!----></g></g> <g transform="translate(67,10.567865371704102)"><g data-gra="path-name" fill-rule="" class="tp-name iconsvg-namesvg"><g transform="scale(1)"><g><path d="M6.17-29.79L6.17-28.21C6.17-27.36 6.66-26.86 7.51-26.86L14.71-26.86C15.39-26.86 15.71-26.41 15.39-25.79L12.69-20.65C12.46-20.2 12.15-20.02 11.65-20.02L4.54-20.02C3.69-20.02 3.19-19.53 3.19-18.68L3.19-17.1C3.19-16.25 3.69-15.75 4.54-15.75L9-15.75C9.67-15.75 9.99-15.3 9.67-14.67L2.7-1.21C2.21-0.32 2.65 0.4 3.69 0.4L10.21 0.4C10.93 0.4 11.43 0.09 11.79-0.58L19.3-15.12C19.53-15.57 19.84-15.75 20.34-15.75L21.06-15.75C21.55-15.75 21.87-15.57 22.09-15.12L29.61-0.58C29.97 0.09 30.46 0.4 31.18 0.4L37.71 0.4C38.74 0.4 39.2-0.32 38.7-1.21L31.72-14.67C31.41-15.3 31.72-15.75 32.4-15.75L36.85-15.75C37.71-15.75 38.2-16.25 38.2-17.1L38.2-18.68C38.2-19.53 37.71-20.02 36.85-20.02L22.99-20.02C22.32-20.02 22-20.47 22.32-21.11L25.02-26.23C25.24-26.68 25.56-26.86 26.05-26.86L33.88-26.86C34.74-26.86 35.23-27.36 35.23-28.21L35.23-29.79C35.23-30.64 34.74-31.14 33.88-31.14L7.51-31.14C6.66-31.14 6.17-30.64 6.17-29.79ZM63.99 0.36L69.08 0.36C69.93 0.36 70.42-0.14 70.42-0.99L70.42-1.3C70.42-1.89 70.74-2.21 71.32-2.21L78.66-2.21C79.52-2.21 80.01-2.7 80.01-3.55L79.97-5.13C79.97-6.03 79.47-6.48 78.61-6.48L71.32-6.48C70.74-6.48 70.42-6.79 70.42-7.29 70.42-7.79 70.74-8.05 71.32-8.05L77.72-8.05C78.57-8.05 79.06-8.55 79.06-9.4L79.06-10.98C79.06-11.83 78.57-12.33 77.72-12.33L71.32-12.33C70.74-12.33 70.42-12.64 70.42-13.14 70.42-13.63 70.74-13.9 71.32-13.9L77.72-13.9C78.57-13.9 79.06-14.4 79.06-15.25L79.06-18.86C79.06-19.44 79.38-19.75 79.97-19.75L80.01-19.75C80.59-19.75 80.91-20.25 80.91-21.11L80.91-22.68C80.91-23.54 80.41-24.03 79.56-24.03 79.25-24.03 79.06-24.34 79.06-24.93L79.06-28.53C79.06-29.38 78.57-29.88 77.72-29.88L71.32-29.88C70.74-29.88 70.42-30.2 70.42-30.78L70.42-30.96C70.42-31.63 69.93-32.04 69.08-32.04L63.05-32.04C61.92-32.04 61.52-31.27 62.23-30.38 62.46-30.11 61.96-29.88 61.2-29.88L57.6-29.88C56.74-29.88 56.25-29.38 56.25-28.53L56.25-26.95C56.25-26.1 56.74-25.61 57.6-25.61L61.74-25.61C62.33-25.61 62.64-25.33 62.64-24.84 62.64-24.34 62.33-24.03 61.74-24.03L55.8-24.03C54.95-24.03 54.45-23.54 54.45-22.68L54.45-21.11C54.45-20.25 54.95-19.75 55.8-19.75L61.74-19.75C62.33-19.75 62.64-19.48 62.64-18.99 62.64-18.5 62.33-18.18 61.74-18.18L56.66-18.18C55.8-18.18 55.3-17.68 55.3-16.83L55.3-15.25C55.3-14.4 55.8-13.9 56.66-13.9L61.74-13.9C62.33-13.9 62.64-13.63 62.64-13.14 62.64-12.64 62.33-12.33 61.74-12.33L56.61-12.33C55.75-12.33 55.26-11.83 55.26-10.98L55.26-9.4C55.26-8.55 55.75-8.05 56.61-8.05L61.74-8.05C62.33-8.05 62.64-7.79 62.64-7.29 62.64-6.79 62.33-6.48 61.74-6.48L55.66-6.48C54.81-6.48 54.31-5.98 54.31-5.13L54.36-3.55C54.36-2.65 54.85-2.21 55.71-2.21L61.74-2.21C62.33-2.21 62.64-1.89 62.64-1.3L62.64-0.94C62.64-0.14 63.13 0.36 63.99 0.36ZM51.12-0.81L53.1-10.84C53.28-11.74 52.88-12.33 51.93-12.33L47.02-12.33C46.21-12.33 45.77-11.92 45.59-11.12L43.56-1.08C43.38-0.18 43.83 0.4 44.77 0.4L49.68 0.4C50.49 0.4 50.98 0 51.12-0.81ZM53.14-15.52L52.06-20.56C51.88-21.33 51.39-21.73 50.58-21.73L45.72-21.73C44.77-21.73 44.32-21.15 44.5-20.25L45.59-15.21C45.77-14.45 46.26-14.04 47.07-14.04L51.93-14.04C52.88-14.04 53.32-14.58 53.14-15.52ZM53.1-24.93L52.02-29.97C51.84-30.73 51.34-31.14 50.53-31.14L45.67-31.14C44.73-31.14 44.28-30.55 44.46-29.65L45.54-24.61C45.72-23.85 46.21-23.45 47.02-23.45L51.88-23.45C52.83-23.45 53.28-23.98 53.1-24.93ZM72.22-24.84C72.22-24.3 71.91-24.03 71.32-24.03L70.74-24.03C70.16-24.03 69.84-24.34 69.84-24.84 69.84-25.33 70.16-25.61 70.74-25.61L71.32-25.61C71.91-25.61 72.22-25.33 72.22-24.84ZM69.84-18.99C69.84-19.48 70.16-19.75 70.74-19.75L71.32-19.75C71.91-19.75 72.22-19.48 72.22-18.99 72.22-18.5 71.91-18.18 71.32-18.18L70.74-18.18C70.16-18.18 69.84-18.5 69.84-18.99ZM119.43-6.61L118.3-5.49C117.94-5.13 117.67-5.04 117.31-5.04 116.95-5.04 116.73-5.35 116.73-5.94L116.69-30.2C116.69-31.09 116.19-31.54 115.33-31.54L88.29-31.54C87.34-31.54 86.94-31.05 87.21-30.46 87.39-30.02 87.57-29.79 87.52-29.29L86.04-1.4C85.99-0.54 86.49 0 87.34 0L93.19 0C94.05 0 94.55-0.4 94.59-1.3L95.94-26.41C95.98-26.95 96.3-27.27 96.84-27.27L107.23-27.27C107.82-27.27 108.13-26.95 108.13-26.37L108.13-1.35C108.13-0.49 108.63 0 109.48 0L119.66 0C120.51 0 121-0.49 121-1.35L121-5.85C121-7.06 120.24-7.42 119.43-6.61ZM138.15-29.7L138.15-28.21C138.15-27.36 138.64-26.86 139.5-26.86L154.21-26.86C154.8-26.86 155.11-26.55 155.11-25.96L155.11-4.5C155.11-4.05 154.98-3.73 154.71-3.38L153.04-1.35C152.32-0.45 152.69 0.32 153.81 0.32L159.7 0.32C161.1 0.32 162.13-0.72 162.13-2.02L162.13-25.88C162.13-26.46 162.4-26.77 162.9-26.77 163.39-26.77 163.66-27.27 163.66-28.13L163.66-29.7C163.66-30.55 163.17-31.05 162.31-31.05L139.5-31.05C138.64-31.05 138.15-30.55 138.15-29.7ZM138.15-22.59L138.15-7.02C138.15-6.17 138.64-5.67 139.5-5.67L152.05-5.67C152.91-5.67 153.4-6.17 153.4-7.02L153.4-22.59C153.4-23.45 152.91-23.94 152.05-23.94L139.5-23.94C138.64-23.94 138.15-23.45 138.15-22.59ZM134.95-31.68L127.39-30.11C126.63-29.92 126.18-29.43 126.18-28.62L126.18-26.23C126.18-25.29 126.76-24.84 127.66-25.02L127.8-25.06C128.38-25.2 128.79-24.88 128.79-24.25L128.74-0.99C128.74-0.14 129.24 0.36 130.09 0.36L135.09 0.36C135.94 0.36 136.44-0.14 136.44-0.99L136.44-30.46C136.44-31.41 135.85-31.86 134.95-31.68ZM146.02-9.31L145.53-9.31C144.94-9.31 144.63-9.63 144.63-10.21L144.63-19.44C144.63-20.02 144.94-20.34 145.53-20.34L146.02-20.34C146.61-20.34 146.92-20.02 146.92-19.44L146.92-10.21C146.92-9.63 146.61-9.31 146.02-9.31Z" transform="translate(-2.4998700618743896, 32.040000915527344)"></path></g> <!----> <!----> <!----> <!----> <!----> <!----> <!----></g></g> <!----></g></g><defs v-gra="od"></defs></svg>